HIERARCHY
ROOT joint_0
{
	OFFSET 0.000000 0.000000 0.000000
	CHANNELS 6 Xposition Yposition Zposition Zrotation Yrotation Xrotation 
	JOINT joint_1
	{
		OFFSET 17.107422 0.519409 105.452026
		CHANNELS 3 Zrotation Yrotation Xrotation
		JOINT joint_2
		{
			OFFSET 6.110352 -1.434082 97.381958
			CHANNELS 3 Zrotation Yrotation Xrotation
			JOINT joint_3
			{
				OFFSET 6.305908 -1.739990 97.255005
				CHANNELS 3 Zrotation Yrotation Xrotation
				JOINT joint_4
				{
					OFFSET 22.074707 -0.492493 131.077026
					CHANNELS 3 Zrotation Yrotation Xrotation
					JOINT joint_5
					{
						OFFSET 34.162842 2.248718 78.700928
						CHANNELS 3 Zrotation Yrotation Xrotation
						End Site
						{
							OFFSET 0.000000 0.000000 0.000000
						}
					}
				}
				JOINT joint_6
				{
					OFFSET 17.059082 -28.836914 72.664062
					CHANNELS 3 Zrotation Yrotation Xrotation
					JOINT joint_7
					{
						OFFSET 22.639893 -134.803833 -24.691040
						CHANNELS 3 Zrotation Yrotation Xrotation
						JOINT joint_8
						{
							OFFSET 7.301758 -32.590759 -269.966064
							CHANNELS 3 Zrotation Yrotation Xrotation
							JOINT joint_9
							{
								OFFSET 35.581055 -8.517151 -242.326965
								CHANNELS 3 Zrotation Yrotation Xrotation
								End Site
								{
									OFFSET 0.000000 0.000000 0.000000
								}
							}
						}
					}
				}
				JOINT joint_10
				{
					OFFSET 7.819092 28.232056 74.432983
					CHANNELS 3 Zrotation Yrotation Xrotation
					JOINT joint_11
					{
						OFFSET -23.457031 135.063843 -22.406982
						CHANNELS 3 Zrotation Yrotation Xrotation
						JOINT joint_12
						{
							OFFSET 17.896973 48.138672 -267.131958
							CHANNELS 3 Zrotation Yrotation Xrotation
							JOINT joint_13
							{
								OFFSET 46.526367 17.567627 -239.975037
								CHANNELS 3 Zrotation Yrotation Xrotation
								End Site
								{
									OFFSET 0.000000 0.000000 0.000000
								}
							}
						}
					}
				}
			}
		}
	}
	JOINT joint_14
	{
		OFFSET 10.553467 -100.140320 -126.306030
		CHANNELS 3 Zrotation Yrotation Xrotation
		JOINT joint_15
		{
			OFFSET -52.094238 -9.565002 -436.052002
			CHANNELS 3 Zrotation Yrotation Xrotation
			JOINT joint_16
			{
				OFFSET -55.682617 -11.310120 -462.482971
				CHANNELS 3 Zrotation Yrotation Xrotation
				JOINT joint_17
				{
					OFFSET 179.119385 -5.942566 -84.087004
					CHANNELS 3 Zrotation Yrotation Xrotation
					End Site
					{
						OFFSET 0.000000 0.000000 0.000000
					}
				}
			}
		}
	}
	JOINT joint_18
	{
		OFFSET -22.235352 101.620483 -123.583984
		CHANNELS 3 Zrotation Yrotation Xrotation
		JOINT joint_19
		{
			OFFSET -38.118408 12.306396 -437.429016
			CHANNELS 3 Zrotation Yrotation Xrotation
			JOINT joint_20
			{
				OFFSET -51.789307 8.010498 -463.006004
				CHANNELS 3 Zrotation Yrotation Xrotation
				JOINT joint_21
				{
					OFFSET 170.088135 59.632324 -83.078003
					CHANNELS 3 Zrotation Yrotation Xrotation
					End Site
					{
						OFFSET 0.000000 0.000000 0.000000
					}
				}
			}
		}
	}
}
MOTION
Frames: 7
Frame Time: 0.016667
-3407.542236 936.803589 1126.151978 -1.825466 -2.716646 -0.674170 0.551978 1.443749 -0.091598 0.514030 -0.234021 -0.010556 0.516630 0.321754 0.093893 -0.062268 -4.824036 0.476260 0.000000 0.000000 0.000000 -1.939449 2.280585 2.148536 -0.237609 1.592336 -0.088186 0.132250 -1.375942 0.553685 0.000000 0.000000 0.000000 -1.426241 2.132852 -1.325578 0.345631 2.652474 -0.037240 0.057662 1.033972 -0.094617 0.000000 0.000000 0.000000 0.159760 -2.536098 2.030976 0.536989 4.332554 -2.337778 0.349803 -0.418176 0.149640 0.000000 0.000000 0.000000 1.762236 1.656640 -0.459710 1.609539 -0.550793 0.515556 1.612252 0.401711 0.645143 0.000000 0.000000 0.000000 
-3405.910400 937.011353 1126.510010 -1.652391 -2.313384 -0.661894 0.677998 2.209210 -0.202101 0.611055 -0.470600 0.037767 0.625991 0.550123 0.071037 -0.056163 -5.557068 0.503413 0.000000 0.000000 0.000000 -2.395403 2.266974 2.100395 -0.214391 1.481977 -0.203017 0.203795 -1.813794 0.923631 0.000000 0.000000 0.000000 -1.768732 2.086898 -1.175884 0.350318 2.628173 -0.096202 -0.037232 0.502483 -0.380130 0.000000 0.000000 0.000000 0.166028 -2.757663 1.876396 0.502594 4.119395 -2.152727 0.334173 -0.403027 0.142887 0.000000 0.000000 0.000000 1.727469 1.182046 -0.506512 1.589265 -0.376896 0.531058 1.592393 0.412714 0.631795 0.000000 0.000000 0.000000 
-3404.109375 937.101257 1127.020020 -1.426639 -1.749052 -0.624100 0.890903 3.390625 -0.463057 0.771085 -0.845137 0.161874 0.810039 0.866964 0.001923 -0.040997 -6.537939 0.515691 0.000000 0.000000 0.000000 -3.186263 2.205796 1.961525 -0.175147 1.289015 -0.233821 0.309497 -2.461158 1.464191 0.000000 0.000000 0.000000 -2.353515 2.024894 -0.719832 0.336391 2.534606 -0.361553 -0.172295 -0.259056 -0.787012 0.000000 0.000000 0.000000 0.183170 -3.101112 1.630820 0.453659 3.830309 -1.856357 0.315523 -0.378924 0.135019 0.000000 0.000000 0.000000 1.689632 0.497546 -0.601240 1.566484 -0.144083 0.584895 1.574460 0.443831 0.612339 0.000000 0.000000 0.000000 
-3400.844727 937.349731 1127.500977 -1.158819 -1.103444 -0.602215 1.126349 4.369469 -0.674476 0.967645 -1.102866 0.267060 1.023780 1.041498 -0.043291 -0.026204 -7.562414 0.518700 0.000000 0.000000 0.000000 -3.862409 2.294693 1.636374 -0.164613 1.329951 -0.098807 0.405336 -3.092915 1.944232 0.000000 0.000000 0.000000 -2.847659 2.045190 -0.205332 0.309099 2.468279 -0.785607 -0.274165 -0.845962 -1.088776 0.000000 0.000000 0.000000 0.211149 -3.413605 1.382966 0.417250 3.501448 -1.565355 0.309626 -0.450933 0.129950 0.000000 0.000000 0.000000 1.638106 -0.244239 -0.661215 1.541955 0.185783 0.587985 1.542582 0.374297 0.621383 0.000000 0.000000 0.000000 
-3394.967529 938.064941 1127.824951 -0.855298 -0.360709 -0.644444 1.358077 4.648110 -0.696104 1.197981 -1.125122 0.307471 1.256411 1.018803 -0.029977 -0.021053 -8.635332 0.527446 0.000000 0.000000 0.000000 -4.109010 2.698582 1.079487 -0.211205 1.844254 0.224498 0.464342 -3.578974 2.233581 0.000000 0.000000 0.000000 -3.012394 2.220588 0.225521 0.256525 2.469054 -1.469314 -0.274147 -0.927526 -1.052027 0.000000 0.000000 0.000000 0.260099 -3.592643 1.196451 0.422704 3.046713 -1.345013 0.336190 -0.673913 0.135111 0.000000 0.000000 0.000000 1.561287 -1.004509 -0.613772 1.515349 0.644729 0.475893 1.483581 0.101448 0.688489 0.000000 0.000000 0.000000 
-3386.969482 939.144470 1128.061035 -0.512888 0.510542 -0.729824 1.608526 4.461133 -0.615531 1.466169 -1.017256 0.329378 1.520350 0.899545 0.006711 -0.018352 -9.846626 0.513753 0.000000 0.000000 0.000000 -4.101002 3.345948 0.384166 -0.290191 2.700513 0.679177 0.503014 -3.991455 2.422255 0.000000 0.000000 0.000000 -2.955889 2.509911 0.639536 0.178784 2.509061 -2.380366 -0.199398 -0.665487 -0.761734 0.000000 0.000000 0.000000 0.328843 -3.694351 1.036510 0.459361 2.446546 -1.155943 0.387278 -0.989075 0.148738 0.000000 0.000000 0.000000 1.462571 -1.842020 -0.493723 1.484923 1.217406 0.284565 1.403549 -0.311523 0.794371 0.000000 0.000000 0.000000 
-3378.152588 940.014832 1128.243042 -0.138467 1.221408 -0.761684 1.846019 4.240984 -0.572712 1.717579 -0.901499 0.358832 1.768098 0.775304 0.032084 0.004720 -10.771021 0.407176 0.000000 0.000000 0.000000 -3.910645 4.016076 -0.259968 -0.377534 3.618136 1.194748 0.510430 -4.276362 2.439144 0.000000 0.000000 0.000000 -2.968385 2.731451 0.791440 0.134551 2.648052 -2.693173 -0.156006 -0.407576 -0.634082 0.000000 0.000000 0.000000 0.370370 -3.749662 0.882590 0.472034 2.202848 -1.040112 0.419515 -1.457907 0.148438 0.000000 0.000000 0.000000 1.358138 -2.504402 -0.381348 1.448916 1.882352 0.049455 1.312233 -0.737223 0.899010 0.000000 0.000000 0.000000 
